<svg width="51" height="48" viewBox="0 0 51 48" fill="none" xmlns="http://www.w3.org/2000/svg">
<path d="M45.9001 47.3679C47.2527 47.3679 48.5499 46.8134 49.5063 45.8263C50.4627 44.8393 51 43.5006 51 42.1048V29.2523C51 27.8564 50.4627 26.5177 49.5063 25.5307C48.5499 24.5437 47.2527 23.9892 45.9001 23.9892H38.8214C38.8214 22.1401 38.9268 20.291 39.1376 18.4419C39.4538 16.484 39.9808 14.7437 40.7186 13.2209C41.4564 11.6981 42.4067 10.4999 43.5694 9.6262C44.7254 8.64727 46.201 8.1578 47.9962 8.1578V0C45.045 0 42.4611 0.652624 40.2443 1.95787C38.0429 3.24667 36.1515 5.03128 34.7109 7.17886C33.2605 9.54278 32.1926 12.1345 31.549 14.8525C30.8981 17.8511 30.5799 20.9163 30.6004 23.9892V42.1048C30.6004 43.5006 31.1377 44.8393 32.0941 45.8263C33.0505 46.8134 34.3477 47.3679 35.7003 47.3679H45.9001ZM15.3007 47.3679C16.6532 47.3679 17.9504 46.8134 18.9068 45.8263C19.8632 44.8393 20.4006 43.5006 20.4006 42.1048V29.2523C20.4006 27.8564 19.8632 26.5177 18.9068 25.5307C17.9504 24.5437 16.6532 23.9892 15.3007 23.9892H8.22198C8.22198 22.1401 8.32738 20.291 8.53817 18.4419C8.85777 16.484 9.38476 14.7437 10.1191 13.2209C10.8569 11.6981 11.8072 10.4999 12.97 9.6262C14.126 8.64727 15.6015 8.1578 17.3967 8.1578V0C14.4456 0 11.8616 0.652624 9.64485 1.95787C7.44344 3.24667 5.55204 5.03128 4.11145 7.17886C2.6611 9.54278 1.59316 12.1345 0.949513 14.8525C0.298681 17.8511 -0.0195595 20.9163 0.000929686 23.9892V42.1048C0.000929686 43.5006 0.53824 44.8393 1.49466 45.8263C2.45108 46.8134 3.74826 47.3679 5.10084 47.3679H15.3007Z" fill="#FF7426"/>
</svg>
